# xmcd CD database file
#
# Track frame offsets:
#	150
#	40860
#	61373
#	66768
#	85963
#	95010
#	129148
#	145885
#	159840
#	170948
#	180353
#	190540
#
# Disc length: 2616 seconds
#
# Revision: 0
# Processed by: cddbd v1.5.1PL0 Copyright (c) Steve Scherf et al.
# Submitted via: CDex 1.51
#
DISCID=9a0a360c
DTITLE=Annie Locke - Portraits
DYEAR=1986
DGENRE=New Age
TTITLE0=To Ra
TTITLE1=Syvia
TTITLE2=Harp Interlude
TTITLE3=Grace
TTITLE4=Marmsy Asleep
TTITLE5=Margaret
TTITLE6=Grace II
TTITLE7=A Magic Place
TTITLE8=Leprechauns
TTITLE9=Mike´s Country
TTITLE10=For Alan: A Happy Piece
TTITLE11=Fanfare For The Future
EXTD=YEAR: 1986
EXTT0=
EXTT1=
EXTT2=
EXTT3=
EXTT4=
EXTT5=
EXTT6=
EXTT7=
EXTT8=
EXTT9=
EXTT10=
EXTT11=
PLAYORDER=
